<svg width="565" height="522" viewBox="0 0 565 522" fill="none" xmlns="http://www.w3.org/2000/svg">
<mask id="mask0_0_1050" style="mask-type:luminance" maskUnits="userSpaceOnUse" x="0" y="0" width="565" height="522">
<path d="M564.164 0.637939H0V522H564.164V0.637939Z" fill="white"/>
</mask>
<g mask="url(#mask0_0_1050)">
<path d="M430.229 169.052C429.714 191.537 443.477 214.498 464.714 221.902C476.279 225.933 488.954 225.363 500.805 228.456C512.656 231.549 524.732 240.472 524.805 252.718C524.855 260.853 520.242 279.303 544.599 290.118C564.692 299.033 559.893 347.279 497.666 367.562C478.6 373.778 490.888 358.143 471.066 355.092C451.497 352.082 433.743 341.013 420.243 326.53C406.743 312.047 397.188 294.294 389.743 275.945C381.174 254.817 375.177 231.476 380.476 209.301C385.775 187.126 405.325 167.086 430.222 169.055" fill="black"/>
<path d="M490.587 370.351C486.348 370.351 484.767 368.059 483.175 364.894C481.5 361.558 479.601 357.778 470.865 356.436C452.348 353.587 434.016 343.296 419.253 327.456C407.253 314.581 397.189 297.9 388.487 276.456C377.559 249.519 374.593 228.078 379.159 208.985C384.314 187.417 404.019 165.61 430.334 167.698C430.681 167.726 431.004 167.886 431.237 168.144C431.47 168.402 431.596 168.74 431.588 169.088C431.065 191.983 445.188 213.656 465.162 220.62C471.462 222.82 478.3 223.641 484.906 224.435C490.374 224.971 495.8 225.876 501.147 227.143C513.141 230.274 526.085 239.611 526.168 252.712C526.176 253.772 526.107 255.002 526.032 256.303C525.503 265.659 524.706 279.803 545.153 288.872C552.695 292.219 557.045 300.803 556.508 311.272C555.581 329.355 539.724 355.284 498.09 368.856C495.681 369.737 493.152 370.243 490.59 370.356M426.859 170.279C403.674 170.279 386.482 190.048 381.806 209.612C377.382 228.129 380.306 249.042 391.012 275.43C399.584 296.561 409.474 312.971 421.247 325.597C435.595 340.991 453.364 350.986 471.281 353.744C481.406 355.3 483.834 360.137 485.609 363.67C487.384 367.203 488.367 369.158 497.246 366.264C537.567 353.121 552.906 328.349 553.789 311.13C554.268 301.813 550.536 294.235 544.049 291.356C521.88 281.519 522.777 265.634 523.314 256.143C523.389 254.833 523.452 253.701 523.447 252.724C523.372 241.059 511.478 232.651 500.461 229.771C495.233 228.538 489.928 227.657 484.582 227.135C477.829 226.321 470.846 225.479 464.265 223.184C443.585 215.977 428.858 193.884 428.853 170.329C428.183 170.296 427.518 170.279 426.859 170.279Z" fill="black"/>
<path d="M308.581 117.686C315.135 149.64 321.469 184.025 308.381 213.905C304.128 223.615 297.943 232.456 294.449 242.465C290.296 254.365 290.166 267.298 291.304 279.848C293.45 303.571 300.577 327.908 317.258 344.913C333.939 361.918 361.851 369.328 382.431 357.334C400.491 346.81 408.737 324.192 407.602 303.321C406.467 282.45 397.56 262.861 388.16 244.192C365.584 199.336 339.267 156.365 308.578 117.686" fill="black"/>
<path d="M354.789 273.531C355.376 256.498 353.274 246.957 352.589 234.22C359.486 230.771 366.867 228.39 374.479 227.16C377.89 226.609 381.736 226.396 384.361 228.46C386.006 229.75 393.794 222.878 394.603 224.769C400.149 237.769 400.619 256.308 406.168 269.312C406.594 270.312 426.023 268.512 426.452 269.512C428.26 273.745 426.743 308.997 425.4 309.891C354.305 357.16 320.063 289.559 320.063 289.559C320.063 289.559 332.957 281.659 354.791 273.531" fill="white"/>
<path d="M377.545 328.044C372.444 328.052 367.363 327.4 362.43 326.103C333.466 318.472 319.43 291.328 318.845 290.176C318.691 289.871 318.657 289.52 318.75 289.191C318.842 288.863 319.055 288.581 319.345 288.401C319.472 288.321 332.258 280.541 353.453 272.578C353.66 263.869 353.256 255.157 352.243 246.505C351.855 242.618 351.457 238.605 351.227 234.298C351.212 234.033 351.275 233.77 351.408 233.541C351.541 233.312 351.738 233.127 351.975 233.008C358.992 229.491 366.506 227.066 374.255 225.818C377.644 225.27 381.911 224.946 385.02 227.255C386.428 226.749 387.77 226.077 389.02 225.255C391.778 223.641 393.406 222.749 394.704 223.178C394.959 223.26 395.194 223.397 395.391 223.579C395.588 223.76 395.744 223.982 395.847 224.23C398.679 230.867 400.222 238.957 401.714 246.781C403.137 254.234 404.607 261.937 407.174 268.205C408.661 268.349 412.98 268.175 416.228 268.047C426.195 267.647 427.162 267.723 427.696 268.975C428.961 271.94 428.651 285.366 428.46 291C427.818 309.913 426.688 310.664 426.145 311.026C409.115 322.347 392.829 328.04 377.54 328.04M321.893 290.065C324.872 295.265 338.63 317.027 363.15 323.475C381.786 328.375 402.375 323.489 424.35 308.953C425.51 305.207 426.623 276.091 425.363 270.606C423.815 270.47 419.554 270.642 416.337 270.769C406.403 271.169 405.445 271.09 404.908 269.841C402.078 263.204 400.536 255.114 399.041 247.292C397.621 239.85 396.156 232.164 393.598 225.904C392.495 226.398 391.425 226.966 390.398 227.604C387.413 229.354 385.057 230.735 383.515 229.523C381.222 227.723 377.595 228.033 374.691 228.501C367.511 229.658 360.538 231.862 353.997 235.041C354.23 238.928 354.581 242.483 354.955 246.229C356.021 255.303 356.419 264.443 356.148 273.576C356.138 273.846 356.049 274.106 355.891 274.325C355.734 274.544 355.515 274.711 355.262 274.805C343.752 278.998 332.593 284.101 321.893 290.065Z" fill="black"/>
<path d="M301.228 125.527C303.316 141.301 306.505 157.846 302.428 173.554C300.199 182.118 300.412 225.654 335.346 238.054C344.932 241.451 355.159 242.648 365.27 241.555C375.381 240.461 385.117 237.107 393.755 231.739C406.602 223.948 422.201 199.739 419.097 175.7C429.732 178.651 440.245 171.48 440.364 161.917C440.436 156.404 434.364 149.496 427.938 149.817C422.965 150.061 422.376 150.11 418.593 152.998C415.81 141.299 414.486 129.3 414.653 117.276C402.564 103.962 383.194 97.162 363.812 94.257C357.381 93.1238 350.825 92.8752 344.326 93.518C325.726 95.838 299.082 109.327 301.226 125.527" fill="white"/>
<path d="M357.982 243.37C350.111 243.356 342.3 241.994 334.888 239.344C299.894 226.923 298.377 183.709 301.104 173.213C304.62 159.677 302.613 145.348 300.669 131.491C300.398 129.553 300.129 127.626 299.874 125.707C299.268 121.144 300.694 116.587 304.11 112.162C312.433 101.383 330.953 93.816 344.154 92.162C351.354 91.262 358.546 92.087 364.011 92.907C380.039 95.307 402.011 101.33 415.654 116.355C415.886 116.611 416.013 116.945 416.008 117.291C415.843 128.511 417.002 139.711 419.461 150.66C422.133 148.81 423.426 148.669 427.861 148.451C429.599 148.441 431.322 148.782 432.925 149.455C434.528 150.128 435.979 151.118 437.189 152.366C440.024 155.102 441.76 158.766 441.719 161.935C441.653 164.306 441.04 166.63 439.928 168.725C438.816 170.82 437.234 172.629 435.307 174.012C433.223 175.546 430.85 176.64 428.331 177.23C425.812 177.819 423.2 177.892 420.652 177.442C422.87 201.934 407.107 225.23 394.452 232.903C383.49 239.68 370.87 243.302 357.982 243.37ZM302.576 125.35C302.828 127.26 303.099 129.182 303.371 131.112C305.348 145.235 307.394 159.835 303.742 173.897C302.216 179.775 300.292 224.175 335.801 236.775C354.933 243.567 375.264 241.366 393.045 230.581C405.086 223.281 420.81 199.596 417.745 175.881C417.715 175.658 417.742 175.431 417.821 175.221C417.901 175.011 418.032 174.823 418.202 174.676C418.372 174.529 418.575 174.426 418.795 174.377C419.014 174.327 419.242 174.333 419.459 174.394C421.867 175.077 424.399 175.201 426.862 174.758C429.325 174.316 431.655 173.317 433.674 171.838C435.267 170.704 436.576 169.217 437.5 167.494C438.424 165.771 438.938 163.858 439.001 161.904C439.031 159.462 437.614 156.563 435.301 154.331C434.359 153.342 433.227 152.552 431.972 152.01C430.718 151.468 429.367 151.185 428.001 151.177C423.181 151.412 422.893 151.426 419.418 154.077C419.237 154.216 419.024 154.306 418.799 154.341C418.573 154.376 418.343 154.354 418.129 154.276C417.914 154.199 417.723 154.069 417.572 153.898C417.42 153.727 417.315 153.521 417.264 153.299C414.499 141.671 413.161 129.749 413.282 117.797C400.153 103.652 379.063 97.92 363.614 95.606C358.32 94.814 351.362 94.011 344.499 94.87C331.843 96.451 314.143 103.63 306.274 113.828C303.317 117.657 302.074 121.536 302.581 125.351" fill="black"/>
<path d="M377.518 189.399C372.274 189.361 367.219 187.433 363.281 183.97C358.378 179.701 355.237 173.763 354.465 167.308C352.695 153.619 361.371 141.178 373.802 139.568C376.836 139.195 379.915 139.47 382.834 140.377C385.754 141.283 388.447 142.8 390.736 144.826C395.589 149.134 398.721 155.052 399.552 161.488C400.383 167.924 398.857 174.443 395.257 179.842C393.557 182.382 391.337 184.532 388.744 186.15C386.151 187.768 383.244 188.817 380.215 189.228C379.32 189.343 378.418 189.401 377.515 189.4M376.485 142.118C375.704 142.118 374.923 142.169 374.148 142.27C363.209 143.678 355.589 154.757 357.165 166.959C357.852 172.745 360.662 178.07 365.05 181.902C367.04 183.695 369.394 185.037 371.951 185.835C374.508 186.634 377.207 186.869 379.863 186.526C382.52 186.184 385.071 185.27 387.341 183.849C389.612 182.427 391.548 180.532 393.017 178.292C396.234 173.447 397.595 167.604 396.85 161.836C396.106 156.068 393.306 150.762 388.964 146.892C385.514 143.853 381.085 142.157 376.488 142.116" fill="black"/>
<path d="M314.366 192.296C309.121 192.257 304.067 190.328 300.129 186.864C295.226 182.596 292.084 176.659 291.313 170.204C289.544 156.513 298.218 144.067 310.65 142.464C323.082 140.861 334.63 150.69 336.399 164.381C337.291 170.82 335.761 177.36 332.105 182.735C330.405 185.275 328.185 187.425 325.591 189.043C322.998 190.661 320.091 191.71 317.062 192.121C316.167 192.237 315.265 192.295 314.362 192.295M313.31 145.013C312.536 145.014 311.763 145.064 310.995 145.163C300.053 146.575 292.433 157.653 294.009 169.855C294.695 175.64 297.505 180.965 301.894 184.795C303.883 186.589 306.237 187.932 308.794 188.73C311.351 189.529 314.051 189.765 316.708 189.422C319.365 189.079 321.916 188.165 324.186 186.744C326.457 185.322 328.392 183.426 329.861 181.185C333.134 176.365 334.501 170.501 333.697 164.73C332.235 153.395 323.342 145.014 313.314 145.014" fill="black"/>
<path d="M433.05 29.151C430.739 21.5463 426.225 14.7977 420.079 9.75839C413.933 4.71911 406.43 1.61554 398.52 0.840158C390.61 0.0647715 382.648 1.65239 375.64 5.40224C368.632 9.1521 362.894 14.8958 359.15 21.907C355.407 28.9182 353.827 36.882 354.609 44.7913C355.392 52.7007 358.502 60.2004 363.547 66.342C368.592 72.4836 375.345 76.9914 382.951 79.2952C390.558 81.599 398.677 81.5955 406.282 79.285C416.48 76.1864 425.029 69.1637 430.049 59.7618C435.069 50.3598 436.148 39.3488 433.05 29.151Z" fill="black"/>
<path d="M417.204 154.647C407.01 138.829 400.772 127.438 397.422 108.18C359.77 130.48 324.029 133.945 287.979 132.571C287.218 126.438 288.505 112.866 291.052 107.054C297.301 92.8059 305.092 80.4689 326.857 70.7389C342.11 63.9219 362.64 59.3869 379.147 61.7659C395.547 64.1279 409.653 72.9959 421.135 83.6469C430.266 92.1219 437.986 106.021 440.702 119.757C443.025 131.521 440.145 140.199 434.874 152.184C431.914 150.589 429.132 148.978 425.701 149.637C422.27 150.296 420.064 152.043 417.201 154.646" fill="black"/>
<path d="M362.578 215.031C359.952 215.077 357.395 214.191 355.36 212.531C355.082 212.3 354.908 211.968 354.875 211.608C354.843 211.248 354.954 210.89 355.186 210.613C355.417 210.335 355.749 210.161 356.109 210.128C356.468 210.095 356.826 210.207 357.104 210.438C359.671 212.581 363.514 212.899 367.379 211.285C371.818 209.37 375.383 205.87 377.379 201.467C377.452 201.301 377.558 201.151 377.69 201.027C377.821 200.902 377.977 200.805 378.147 200.742C378.317 200.678 378.497 200.649 378.679 200.656C378.86 200.663 379.038 200.707 379.202 200.784C379.366 200.861 379.513 200.97 379.635 201.104C379.756 201.239 379.85 201.397 379.909 201.568C379.969 201.739 379.994 201.921 379.983 202.102C379.971 202.283 379.924 202.46 379.843 202.622C377.563 207.638 373.495 211.623 368.433 213.799C366.583 214.59 364.595 215.008 362.583 215.028" fill="black"/>
<path d="M375.948 165.472C375.89 164.714 375.606 163.992 375.133 163.397C374.66 162.802 374.02 162.363 373.295 162.136C372.57 161.908 371.793 161.904 371.066 162.122C370.338 162.341 369.693 162.773 369.213 163.362C368.733 163.951 368.441 164.671 368.374 165.428C368.307 166.184 368.469 166.944 368.838 167.608C369.207 168.272 369.767 168.81 370.445 169.153C371.123 169.496 371.888 169.628 372.642 169.531C373.126 169.482 373.595 169.338 374.023 169.107C374.451 168.876 374.829 168.564 375.136 168.187C375.443 167.81 375.673 167.376 375.812 166.91C375.952 166.444 375.998 165.956 375.948 165.472Z" fill="black"/>
<path d="M319.702 168.434C319.645 167.676 319.362 166.952 318.889 166.357C318.416 165.761 317.776 165.321 317.05 165.094C316.325 164.866 315.548 164.862 314.82 165.08C314.091 165.299 313.446 165.731 312.966 166.321C312.486 166.91 312.194 167.63 312.127 168.388C312.061 169.145 312.223 169.905 312.593 170.569C312.963 171.233 313.524 171.771 314.203 172.113C314.882 172.455 315.648 172.586 316.402 172.488C317.377 172.387 318.272 171.904 318.89 171.144C319.509 170.383 319.801 169.409 319.702 168.434Z" fill="black"/>
<path d="M340.813 191.443C340.647 191.443 340.483 191.413 340.328 191.354L335.198 189.405C334.709 189.274 334.254 189.039 333.864 188.716C333.474 188.394 333.157 187.991 332.936 187.536C332.385 186.102 333.321 184.845 333.825 184.169C335.725 181.634 337.022 178.7 337.617 175.589C338.213 172.477 338.092 169.271 337.264 166.214C337.166 165.866 337.21 165.494 337.387 165.179C337.563 164.864 337.858 164.631 338.205 164.534C338.553 164.436 338.926 164.48 339.241 164.656C339.556 164.833 339.788 165.127 339.886 165.475C340.826 168.934 340.966 172.562 340.295 176.083C339.623 179.604 338.158 182.925 336.01 185.795C335.816 186.037 335.648 186.299 335.51 186.576C335.722 186.683 335.94 186.777 336.163 186.858L341.293 188.807C341.591 188.92 341.841 189.134 341.998 189.412C342.154 189.69 342.209 190.014 342.151 190.327C342.093 190.641 341.927 190.925 341.682 191.129C341.436 191.333 341.127 191.444 340.808 191.443" fill="black"/>
<path d="M334.131 160.848C333.774 160.848 333.432 160.708 333.178 160.458C332.924 160.208 332.778 159.868 332.772 159.511C332.711 155.975 336.142 153.511 339.572 152.639C342.36 151.949 345.272 151.925 348.071 152.57C350.87 153.215 353.477 154.51 355.682 156.351C355.954 156.588 356.121 156.924 356.146 157.284C356.17 157.644 356.051 157.999 355.814 158.271C355.576 158.544 355.241 158.71 354.88 158.735C354.52 158.76 354.165 158.64 353.893 158.403C352.023 156.847 349.812 155.753 347.441 155.21C345.069 154.667 342.603 154.69 340.242 155.277C337.858 155.886 335.46 157.52 335.494 159.463C335.5 159.824 335.362 160.172 335.111 160.431C334.861 160.691 334.518 160.84 334.157 160.847L334.131 160.848Z" fill="black"/>
<path d="M396.86 154.873C396.681 154.873 396.504 154.839 396.339 154.77C396.173 154.702 396.023 154.602 395.896 154.476C395.64 154.221 395.496 153.875 395.495 153.514C395.494 153.153 395.637 152.806 395.892 152.55C396.147 152.294 396.493 152.15 396.854 152.149L415.465 152.096C415.826 152.095 416.172 152.238 416.428 152.492C416.684 152.747 416.828 153.093 416.829 153.454C416.83 153.815 416.687 154.161 416.432 154.417C416.178 154.673 415.832 154.817 415.471 154.818L396.862 154.873H396.86Z" fill="black"/>
<path d="M418.86 167.745H418.846C418.667 167.743 418.49 167.706 418.326 167.636C418.161 167.566 418.012 167.464 417.887 167.336C417.762 167.209 417.663 167.057 417.596 166.891C417.529 166.725 417.496 166.548 417.498 166.369C417.539 161.799 416.644 157.268 414.868 153.057C414.727 152.725 414.724 152.35 414.859 152.015C414.994 151.681 415.257 151.413 415.59 151.272C415.922 151.132 416.297 151.128 416.631 151.264C416.966 151.399 417.233 151.662 417.374 151.994C419.296 156.549 420.266 161.45 420.223 166.394C420.219 166.753 420.074 167.095 419.819 167.347C419.564 167.6 419.22 167.741 418.861 167.742" fill="black"/>
<path d="M555.193 418.964C538.736 373.989 529.657 329.611 490.836 297.209C472.202 281.657 449.729 270.624 423.836 268.962C422.25 294.033 393.125 310.551 377.518 312.415C369.024 313.431 337.471 317.631 337.471 280.428C327.171 284.528 292.914 288.737 279.171 330.949C273.553 348.212 263.489 414.288 230.311 452.585C222.475 461.628 215.235 401.441 203.961 405.447C192.897 409.379 180.155 415.963 179.325 427.674C178.677 436.802 186.197 444.752 194.603 448.365C212.666 456.126 219.433 493.734 238.903 496.477C259.142 499.332 291.468 506.791 315.932 430.304C328.432 442.804 336.504 456.239 350.532 463.797C390.956 485.59 525.455 510.057 547.367 513.944C549.186 514.268 553.317 512.778 554.042 511.078C558.642 500.308 570.696 461.34 555.194 418.962" fill="#0086D5"/>
<path d="M547.875 515.347C547.624 515.349 547.374 515.329 547.127 515.289C521.25 510.696 390.127 486.689 349.885 464.998C340.153 459.754 333.25 451.774 325.946 443.33C322.967 439.888 319.899 436.344 316.538 432.861C306.122 464.58 293.466 484.445 277.886 493.555C264.228 501.54 251.22 499.646 240.766 498.123C240.068 498.02 239.384 497.92 238.714 497.823C227.65 496.264 220.568 484.3 213.714 472.73C207.985 463.053 202.06 453.044 194.07 449.611C185.537 445.948 177.25 437.711 177.97 427.575C178.67 417.675 187.027 410.021 203.509 404.163C204.105 403.947 204.739 403.858 205.372 403.902C206.004 403.946 206.62 404.121 207.18 404.418C212.402 407.026 216.38 419.782 220.235 432.118C222.813 440.369 226.343 451.665 228.635 452.144C228.835 452.172 229.186 451.809 229.288 451.693C255.693 421.212 267.51 372.272 273.859 345.98C275.476 339.28 276.759 333.986 277.879 330.528C289.929 293.502 318.017 285.018 331.515 280.94C333.702 280.281 335.588 279.711 336.967 279.162C337.173 279.08 337.397 279.049 337.618 279.074C337.839 279.098 338.05 279.176 338.234 279.3C338.418 279.425 338.568 279.593 338.672 279.79C338.776 279.986 338.83 280.205 338.83 280.427C338.83 291.665 341.795 299.994 347.643 305.179C357.026 313.505 371.584 311.755 377.069 311.099L377.357 311.063C392.283 309.28 420.937 293.218 422.476 268.876C422.499 268.516 422.664 268.179 422.935 267.94C423.206 267.701 423.561 267.58 423.921 267.602C448.051 269.15 470.857 278.76 491.708 296.164C524.027 323.14 535.825 358.064 548.32 395.03C550.912 402.702 553.594 410.64 556.468 418.495C570.528 456.933 562.343 495.114 555.289 511.616C554.364 513.781 550.314 515.346 547.872 515.346M315.932 428.946C316.294 428.946 316.64 429.09 316.896 429.346C320.952 433.405 324.538 437.546 328.001 441.546C335.142 449.8 341.883 457.594 351.175 462.602C391.048 484.096 521.793 508.026 547.598 512.602C548.988 512.843 552.377 511.502 552.787 510.542C553.546 508.77 571.155 466.566 553.911 419.428C551.026 411.54 548.34 403.588 545.74 395.899C533.372 359.299 521.691 324.737 489.964 298.251C469.952 281.551 448.128 272.186 425.081 270.411C423.666 284.299 414.421 294.377 406.781 300.452C397.938 307.482 386.517 312.709 377.681 313.764L377.393 313.797C371.576 314.497 356.132 316.347 345.835 307.213C339.73 301.797 336.471 293.439 336.135 282.35C335.003 282.727 333.712 283.117 332.303 283.543C318.243 287.787 292.076 295.695 280.469 331.365C279.375 334.723 278.107 339.973 276.504 346.615C270.104 373.131 258.183 422.49 231.343 453.472C230.981 453.981 230.482 454.378 229.903 454.614C229.325 454.85 228.691 454.917 228.076 454.807C224.396 454.04 221.838 446.387 217.635 432.926C214.296 422.241 210.143 408.943 205.959 406.853C205.726 406.723 205.468 406.644 205.202 406.623C204.936 406.601 204.668 406.637 204.417 406.728C189.064 412.185 181.301 419.065 180.683 427.768C180.063 436.523 187.743 443.932 195.141 447.11C203.948 450.892 210.103 461.289 216.056 471.342C222.878 482.865 229.321 493.749 239.089 495.126C239.765 495.22 240.454 495.326 241.154 495.426C261.133 498.339 291.332 502.735 314.634 429.89C314.705 429.667 314.831 429.467 315.002 429.308C315.173 429.149 315.382 429.037 315.609 428.982C315.714 428.957 315.822 428.944 315.93 428.943" fill="black"/>
<path d="M506.928 462.344C470.01 460.287 432.867 457.744 395.722 455.19C392.397 454.642 375.873 452.277 371.795 451.679C368.35 451.076 365.008 449.983 361.872 448.434C350.825 443.334 327.122 433.325 321.833 436.285C309.648 439.868 298.603 448.667 289.97 459.803C285.125 466.055 281.154 476.41 283.159 478.19C283.748 478.806 284.539 479.188 285.387 479.265C286.235 479.343 287.083 479.112 287.774 478.614C293.621 466.205 303.656 456.255 316.115 450.514C310.36 453.767 305.016 457.7 300.2 462.229C295.327 466.814 290.847 472.34 289.751 478.941C289.613 479.448 289.659 479.988 289.881 480.464C290.543 481.558 292.232 480.921 293.237 480.132C295.211 478.59 320.609 457.96 325.354 458.508C319.044 460.889 296.548 479.146 296.454 481.09C296.368 482.024 296.622 482.957 297.171 483.718C297.605 484.185 298.152 484.531 298.759 484.724C299.367 484.917 300.013 484.949 300.637 484.818C301.88 484.538 303.058 484.024 304.109 483.303C311.371 478.892 318.019 473.36 325.866 470.096C329.784 468.465 334.566 467.527 338.051 469.949C331.03 472.557 324.57 476.478 319.016 481.503C318.141 482.312 317.401 483.255 316.823 484.297C315.959 485.842 314.987 488.076 316.186 489.353C318.144 491.438 319.799 490.389 321.48 489.406C328.023 485.05 334.995 481.375 342.287 478.439C344.519 477.55 347.187 476.769 349.206 478.065C350.959 479.186 359.434 484.45 376.852 485.352C382.797 485.662 388.528 487.21 395.959 489.252C493.849 516.232 523.089 526.997 546.801 516.797C551.444 514.797 553.009 512.364 551.461 504.397C547.33 483.116 543.29 471.023 506.929 462.343" fill="white"/>
<path d="M526.936 522C508.181 522 481.468 514.53 431.229 500.481C420.641 497.521 408.644 494.168 395.598 490.572C388.684 488.672 382.715 487.022 376.784 486.715C360.479 485.868 351.555 481.189 348.474 479.215C346.96 478.249 344.642 478.969 342.793 479.708C335.585 482.604 328.695 486.235 322.232 490.545L322.049 490.656C320.377 491.636 317.849 493.115 315.194 490.288C313.142 488.101 315.02 484.742 315.634 483.638C316.283 482.471 317.114 481.414 318.095 480.507C322.923 476.11 328.447 472.544 334.442 469.956C331.756 469.516 328.733 470.382 326.388 471.356C321.288 473.482 316.559 476.683 311.988 479.781C309.665 481.356 307.262 482.981 304.814 484.471C303.617 485.286 302.273 485.86 300.857 486.163C299.996 486.339 299.104 486.285 298.27 486.006C297.437 485.728 296.691 485.234 296.109 484.576C295.343 483.56 294.981 482.296 295.093 481.029C295.15 480.68 295.293 480.351 295.508 480.071L294.963 480.503C294.534 480.846 294.232 481.087 294.074 481.209C293.067 482.059 291.764 482.476 290.45 482.366C290.092 482.303 289.752 482.164 289.453 481.959C289.153 481.753 288.901 481.486 288.714 481.175C288.485 480.788 288.352 480.353 288.326 479.904C287.385 480.493 286.272 480.745 285.168 480.619C284.065 480.493 283.038 479.996 282.254 479.209C278.979 476.309 284.771 464.288 288.891 458.972C298.324 446.801 309.535 438.519 321.318 435.017C327.703 431.83 352.159 442.454 362.439 447.199C365.46 448.687 368.676 449.742 371.991 450.333C373.071 450.491 375.023 450.773 377.373 451.114C383.733 452.033 393.318 453.414 395.873 453.838C432.107 456.327 469.58 458.899 506.996 460.984C507.077 460.989 507.158 461.001 507.237 461.02C544.416 469.897 548.599 482.544 552.791 504.138C554.342 512.12 552.965 515.631 547.331 518.051C540.884 520.786 533.933 522.132 526.931 521.999M346.688 476.023C347.837 476 348.967 476.313 349.941 476.923C352.841 478.778 361.271 483.183 376.925 483.997C383.152 484.318 389.254 485.997 396.325 487.948C409.374 491.548 421.374 494.9 431.961 497.86C502.42 517.56 526.161 524.196 546.261 515.552C550.01 513.938 551.613 512.34 550.121 504.66C546.032 483.598 542.241 472.199 506.729 463.699C469.309 461.614 431.851 459.039 395.629 456.55C395.587 456.55 395.543 456.542 395.502 456.536C393.071 456.136 383.394 454.736 376.99 453.809C374.637 453.468 372.679 453.186 371.599 453.028C368.024 452.403 364.556 451.273 361.299 449.672C341.436 440.505 325.84 435.599 322.499 437.472C322.41 437.523 322.315 437.563 322.217 437.591C311.1 440.861 300.031 449.045 291.047 460.638C286.094 467.028 283.275 475.899 284.1 477.212C284.43 477.549 284.855 477.777 285.317 477.868C285.78 477.958 286.259 477.906 286.692 477.719C292.721 465.178 302.923 455.125 315.551 449.281C315.87 449.135 316.233 449.118 316.565 449.233C316.897 449.349 317.171 449.588 317.33 449.9C317.489 450.213 317.522 450.575 317.42 450.912C317.319 451.248 317.092 451.532 316.786 451.704C311.126 454.904 305.871 458.772 301.134 463.225C295.156 468.846 291.967 473.91 291.095 479.167C291.061 479.339 291.043 479.514 291.042 479.69C291.541 479.602 292.009 479.385 292.399 479.061C292.554 478.942 292.85 478.704 293.266 478.372C320.58 456.585 324.166 457 325.513 457.158C325.816 457.193 326.098 457.329 326.315 457.544C326.531 457.759 326.669 458.04 326.707 458.343C326.744 458.646 326.679 458.952 326.521 459.213C326.363 459.475 326.122 459.675 325.837 459.783C319.989 461.992 299.573 478.508 297.809 481.36C297.764 481.694 297.806 482.034 297.93 482.347C298.055 482.661 298.258 482.937 298.52 483.149C298.781 483.362 299.093 483.503 299.426 483.56C299.758 483.617 300.099 483.588 300.417 483.475C301.486 483.22 302.499 482.767 303.402 482.14C305.791 480.689 308.167 479.081 310.465 477.522C315.144 474.352 319.984 471.071 325.341 468.839C329.192 467.239 334.661 465.932 338.828 468.833C339.032 468.974 339.194 469.169 339.295 469.395C339.397 469.621 339.434 469.871 339.404 470.118C339.374 470.364 339.277 470.597 339.124 470.792C338.971 470.988 338.767 471.137 338.535 471.225C331.67 473.762 325.356 477.592 319.935 482.508C319.168 483.22 318.519 484.049 318.011 484.964C316.599 487.492 317.017 488.248 317.178 488.422C318.294 489.607 318.906 489.338 320.672 488.303L320.794 488.231C327.391 483.834 334.424 480.13 341.781 477.175C343.331 476.489 344.994 476.098 346.687 476.02" fill="black"/>
<path d="M262.556 510.019L354.475 511.99L354.594 496.377L252.286 493.877L262.556 510.019Z" fill="black"/>
<path d="M1.362 367.463L201.185 368.557L270.057 510.015L72.109 509.515L1.362 367.463Z" fill="white"/>
<path d="M270.057 511.379L72.109 510.879C71.8566 510.878 71.6092 510.808 71.3947 510.675C71.1801 510.542 71.0068 510.352 70.894 510.126L0.144 368.072C0.0407785 367.865 -0.00775957 367.634 0.00298829 367.403C0.0137361 367.171 0.0834137 366.947 0.205414 366.75C0.327414 366.553 0.497693 366.39 0.700104 366.278C0.902514 366.165 1.13035 366.106 1.362 366.106H1.37L201.19 367.2C201.444 367.202 201.693 367.274 201.908 367.41C202.124 367.545 202.297 367.738 202.408 367.967L271.28 509.425C271.38 509.633 271.427 509.862 271.414 510.093C271.402 510.323 271.331 510.546 271.209 510.742C271.086 510.938 270.917 511.099 270.715 511.211C270.513 511.323 270.287 511.382 270.056 511.383M72.956 508.163L267.878 508.653L200.329 369.916L3.566 368.839L72.956 508.163Z" fill="black"/>
<path d="M127.753 425.102C122.08 424.545 115.883 426.063 113.572 431.271C111.261 436.479 113.032 443.01 117.243 446.853C121.454 450.696 127.676 451.934 133.235 450.682C136.235 450.004 139.215 448.55 140.943 446C142.101 444.189 142.701 442.077 142.668 439.928C142.715 432.912 139.514 426.256 127.753 425.101" fill="white"/>
<path d="M128.982 452.516C124.332 452.582 119.822 450.923 116.323 447.859C111.539 443.493 109.858 436.286 112.323 430.721C114.585 425.621 120.405 423.021 127.881 423.747C141.304 425.065 144.07 433.28 144.026 439.939C144.061 442.359 143.379 444.734 142.066 446.767C139.866 450.009 136.21 451.41 133.53 452.011C132.036 452.348 130.509 452.518 128.978 452.518M125.608 426.364C122.313 426.364 116.898 427.128 114.808 431.827C112.801 436.351 114.208 442.249 118.15 445.848C120.161 447.56 122.55 448.771 125.121 449.38C127.691 449.989 130.369 449.98 132.935 449.353C135.663 448.891 138.118 447.421 139.815 445.236C140.818 443.645 141.335 441.797 141.305 439.917C141.36 431.769 136.883 427.366 127.619 426.458C127.146 426.411 126.445 426.358 125.612 426.358" fill="black"/>
<path d="M484.903 462.428C484.616 462.428 484.337 462.337 484.105 462.169C483.873 462.001 483.7 461.764 483.61 461.492C469.703 419.382 461.833 392.744 461.833 334.999C461.833 334.638 461.976 334.292 462.232 334.037C462.487 333.781 462.833 333.638 463.194 333.638C463.555 333.638 463.901 333.781 464.156 334.037C464.412 334.292 464.555 334.638 464.555 334.999C464.555 392.326 472.374 418.792 486.193 460.639C486.249 460.809 486.271 460.988 486.258 461.166C486.244 461.344 486.196 461.518 486.116 461.678C486.035 461.838 485.924 461.98 485.788 462.097C485.653 462.213 485.496 462.302 485.326 462.358C485.189 462.404 485.045 462.427 484.9 462.427" fill="black"/>
<path d="M315.938 431.664C315.718 431.664 315.501 431.612 315.307 431.51C315.112 431.408 314.944 431.261 314.819 431.08C296.872 405.264 301.726 386.357 306.419 368.069C308.761 358.938 311.187 349.494 310.805 339.169C310.798 338.99 310.826 338.812 310.889 338.644C310.951 338.476 311.045 338.322 311.167 338.191C311.289 338.06 311.435 337.954 311.598 337.88C311.76 337.805 311.936 337.763 312.115 337.757C312.475 337.747 312.824 337.879 313.088 338.124C313.352 338.369 313.51 338.707 313.527 339.067C313.927 349.785 311.45 359.423 309.058 368.745C304.307 387.251 299.819 404.73 317.058 429.522C317.2 429.726 317.284 429.965 317.299 430.213C317.315 430.461 317.263 430.709 317.148 430.93C317.033 431.15 316.86 431.335 316.647 431.464C316.435 431.593 316.191 431.662 315.942 431.662" fill="black"/>
<path d="M374.353 368.194C356.209 368.194 338.047 366.555 320.415 362.136C320.355 362.124 320.297 362.1 320.246 362.066C320.196 362.031 320.152 361.986 320.119 361.934C320.086 361.882 320.064 361.824 320.054 361.764C320.044 361.703 320.047 361.641 320.062 361.581C320.077 361.521 320.103 361.465 320.141 361.416C320.178 361.367 320.225 361.326 320.278 361.296C320.332 361.265 320.391 361.246 320.452 361.239C320.513 361.233 320.575 361.238 320.634 361.256C365.357 372.464 413.617 365.711 456.191 359.75C456.31 359.733 456.431 359.764 456.528 359.837C456.624 359.909 456.688 360.017 456.704 360.137C456.721 360.256 456.69 360.377 456.618 360.473C456.545 360.57 456.437 360.633 456.318 360.65C430.418 364.274 402.405 368.195 374.352 368.195" fill="black"/>
<path d="M390.711 403.068C364.048 403.083 337.479 399.904 311.572 393.599C311.46 393.566 311.364 393.491 311.306 393.39C311.248 393.288 311.231 393.168 311.258 393.054C311.286 392.941 311.357 392.842 311.455 392.779C311.554 392.716 311.673 392.693 311.788 392.716C359.459 404.297 409.096 405.239 457.172 395.476C457.231 395.462 457.292 395.46 457.352 395.47C457.412 395.481 457.469 395.503 457.52 395.535C457.572 395.568 457.616 395.611 457.65 395.661C457.684 395.711 457.708 395.767 457.721 395.826C457.733 395.886 457.733 395.947 457.721 396.007C457.709 396.066 457.686 396.123 457.652 396.173C457.618 396.223 457.574 396.266 457.523 396.299C457.472 396.332 457.415 396.354 457.355 396.365C435.422 400.833 413.094 403.077 390.711 403.065" fill="black"/>
<path d="M558.25 473.876C558.184 473.876 558.119 473.861 558.059 473.833C558 473.805 557.947 473.765 557.904 473.715C549.431 463.939 538.603 456.488 526.445 452.067C514.287 447.647 501.201 446.403 488.428 448.453C488.369 448.463 488.308 448.461 488.25 448.448C488.192 448.434 488.136 448.41 488.088 448.375C488.039 448.34 487.997 448.296 487.965 448.245C487.934 448.195 487.912 448.138 487.902 448.079C487.892 448.02 487.894 447.959 487.907 447.901C487.921 447.843 487.945 447.787 487.98 447.739C488.015 447.69 488.059 447.648 488.11 447.616C488.16 447.585 488.217 447.563 488.276 447.553C501.205 445.479 514.449 446.739 526.754 451.214C539.06 455.689 550.02 463.231 558.596 473.125C558.652 473.191 558.688 473.272 558.7 473.358C558.712 473.444 558.699 473.531 558.662 473.61C558.626 473.688 558.568 473.755 558.495 473.802C558.422 473.848 558.337 473.873 558.25 473.873" fill="black"/>
<path d="M555.199 455.699C555.141 455.699 555.084 455.688 555.03 455.666C552.407 454.431 550.019 452.748 547.973 450.693C547.228 450.026 546.461 449.339 545.686 448.705C540.94 444.817 535.228 442.289 529.159 441.39C529.042 441.37 528.937 441.305 528.867 441.209C528.797 441.112 528.768 440.993 528.785 440.875C528.803 440.757 528.866 440.651 528.96 440.579C529.055 440.507 529.174 440.475 529.292 440.49C535.524 441.414 541.388 444.01 546.262 448.002C547.051 448.65 547.826 449.345 548.577 450.015C550.548 451.996 552.846 453.622 555.369 454.824C555.467 454.863 555.548 454.936 555.598 455.028C555.648 455.121 555.665 455.228 555.645 455.331C555.625 455.434 555.57 455.528 555.488 455.595C555.407 455.662 555.305 455.699 555.2 455.699" fill="black"/>
</g>
</svg>
